<svg width="548" height="347" viewBox="0 0 548 347" fill="none" xmlns="http://www.w3.org/2000/svg">
<path d="M379.17 25.0808C423.998 25.0808 547.238 134.856 547.238 227.628C547.238 289.934 493.433 294.845 470.147 294.845C405.57 294.845 365.652 259.521 344.743 259.521C301.181 259.521 339.674 346.063 257.989 346.063C209.201 346.063 0 231.641 0 109.828C0 39.4429 51.4289 19.431 105.551 19.431C189.506 18.3222 268.972 64.8405 310.21 64.8405C351.449 64.8405 360.742 25.0808 379.17 25.0808Z" fill="#F7F7F7"/>
<path d="M148.848 184.912V152.069H110.461V184.912H63.3095L64.1543 183.75L67.9033 178.576L69.6457 176.199L73.3946 171.025L75.1371 168.649L78.886 163.474L80.6285 161.098L84.3774 155.924L86.1199 153.547L89.8688 148.373L91.6113 145.997L95.3602 140.822L97.1026 138.446L100.852 133.272L102.594 130.896L106.343 125.721L108.085 123.345L111.834 118.17L113.577 115.794L117.326 110.62L119.068 108.244L122.817 103.069L124.56 100.693L128.308 95.5183L130.051 93.1422L133.8 87.9677L135.542 85.5916L139.291 80.417L140.136 79.2554H97.5251L96.6802 80.417L92.9313 85.486L91.1888 87.8093L87.4399 92.8782L85.6975 95.2543L81.9485 100.323L80.2061 102.647L76.4571 107.716L74.7147 110.092L70.9658 115.161L69.2233 117.484L65.4744 122.553L63.7319 124.929L59.983 129.998L58.2405 132.321L54.4916 137.39L52.7492 139.713L49.0002 144.782L47.2578 147.158L43.5088 152.227L41.7664 154.551L38.0175 159.62L36.275 161.996L32.5261 167.065L30.7836 169.441L27.0347 174.51L25.2922 176.886L22.2297 181.004L21.5433 181.902L19.8008 184.278L15.7879 189.241L14.7319 190.667V218.018H109.247V254.874H148.848V218.018H177.414V184.912H148.848Z" fill="#D9D9D9"/>
<path d="M339.938 164.53C339.938 163.58 339.885 162.577 339.832 161.626C339.78 159.567 339.674 157.508 339.516 155.554C339.463 154.604 339.357 153.6 339.252 152.65C339.04 150.591 338.776 148.584 338.512 146.578C338.354 145.627 338.196 144.677 338.037 143.726C337.668 141.72 337.298 139.713 336.823 137.76C336.611 136.809 336.4 135.859 336.136 134.961C335.608 132.955 335.08 131.001 334.447 129.1C334.13 128.15 333.866 127.252 333.549 126.355C332.863 124.401 332.123 122.5 331.331 120.652C330.962 119.754 330.539 118.857 330.17 118.012C329.272 116.164 328.374 114.316 327.424 112.573C326.949 111.728 326.474 110.884 325.946 110.092C324.89 108.349 323.728 106.66 322.566 105.023C321.985 104.231 321.405 103.439 320.824 102.699C319.557 101.063 318.236 99.5313 316.864 98.0528C316.23 97.3664 315.544 96.6272 314.857 95.9935C313.379 94.5679 311.9 93.1951 310.316 91.9278C309.577 91.2942 308.838 90.7134 308.046 90.1325C306.409 88.9181 304.772 87.7565 303.03 86.7004C302.185 86.1724 301.393 85.6972 300.548 85.222C298.805 84.2187 296.957 83.3211 295.109 82.4763C294.212 82.1067 293.314 81.7371 292.416 81.3675C290.516 80.6282 288.615 79.9418 286.661 79.361C285.763 79.097 284.813 78.833 283.863 78.6218C281.909 78.1465 279.902 77.7241 277.896 77.3545C276.946 77.1961 275.995 77.0377 275.045 76.9321C273.038 76.6681 271.032 76.5097 268.972 76.4041C268.022 76.3513 267.072 76.2985 266.068 76.2985C265.593 76.2985 265.118 76.2985 264.695 76.2985C263.111 76.2985 261.527 76.3513 259.996 76.4041C259.046 76.4569 258.042 76.5097 257.092 76.6153C255.033 76.8265 253.026 77.0905 251.073 77.4073C250.122 77.5657 249.172 77.7769 248.221 77.9353C246.215 78.3578 244.261 78.8858 242.308 79.4666C241.357 79.7306 240.459 80.0474 239.562 80.3642C237.608 81.0506 235.76 81.7899 233.912 82.6347C233.067 83.0571 232.17 83.4267 231.325 83.9019C229.53 84.8524 227.734 85.8028 226.045 86.9116C225.253 87.4397 224.408 87.9677 223.616 88.4957C221.926 89.6573 220.342 90.8718 218.758 92.1918C218.019 92.8254 217.279 93.4591 216.593 94.0927C215.115 95.4655 213.636 96.8912 212.263 98.3696C211.63 99.056 210.996 99.7953 210.362 100.534C209.042 102.066 207.828 103.65 206.614 105.339C206.033 106.131 205.505 106.924 204.977 107.716C203.868 109.405 202.812 111.148 201.809 112.943C201.333 113.788 200.911 114.633 200.436 115.477C199.538 117.273 198.693 119.121 197.848 121.022C197.479 121.919 197.109 122.764 196.74 123.714C196 125.563 195.367 127.516 194.733 129.47C194.469 130.367 194.152 131.318 193.888 132.216C193.36 134.116 192.832 136.123 192.41 138.129C192.199 139.08 191.987 139.977 191.829 140.981C191.459 142.934 191.09 144.941 190.826 147C190.667 147.95 190.562 148.901 190.456 149.851C190.192 151.858 190.034 153.864 189.875 155.924C189.823 156.874 189.717 157.824 189.664 158.828C189.559 160.834 189.506 162.841 189.453 164.9C189.453 165.586 189.453 166.273 189.453 167.012C189.453 167.382 189.453 167.751 189.453 168.121C189.453 170.18 189.506 172.239 189.611 174.193C189.664 175.143 189.717 176.147 189.77 177.097C189.928 179.156 190.087 181.163 190.298 183.169C190.403 184.12 190.509 185.07 190.667 186.021C190.931 188.08 191.301 190.086 191.671 192.04C191.829 192.99 192.04 193.941 192.251 194.891C192.674 196.898 193.149 198.904 193.73 200.805C193.994 201.756 194.258 202.653 194.522 203.604C195.156 205.557 195.789 207.511 196.476 209.359C196.792 210.257 197.162 211.154 197.532 212.052C198.324 213.953 199.168 215.801 200.013 217.596C200.436 218.494 200.911 219.338 201.333 220.183C202.284 221.979 203.34 223.774 204.396 225.463C204.924 226.256 205.452 227.1 205.98 227.892C207.142 229.582 208.356 231.219 209.676 232.75C210.31 233.489 210.89 234.229 211.577 234.915C212.95 236.446 214.375 237.925 215.854 239.298C216.54 239.931 217.279 240.618 218.019 241.251C219.55 242.571 221.187 243.838 222.824 245C223.616 245.581 224.408 246.109 225.2 246.637C226.889 247.746 228.632 248.749 230.48 249.7C231.325 250.175 232.17 250.597 233.067 251.02C234.915 251.864 236.763 252.656 238.664 253.343C239.562 253.66 240.459 253.976 241.41 254.293C243.311 254.927 245.317 255.455 247.271 255.877C248.221 256.089 249.172 256.3 250.122 256.458C252.129 256.828 254.135 257.145 256.142 257.356C257.092 257.461 258.042 257.567 259.046 257.62C260.894 257.725 262.795 257.831 264.695 257.831H265.118C266.068 257.831 267.072 257.778 268.022 257.778C270.081 257.673 272.088 257.514 274.094 257.303C275.045 257.197 275.995 257.039 276.945 256.933C278.952 256.617 280.958 256.247 282.912 255.772C283.863 255.56 284.76 255.296 285.711 255.032C287.664 254.504 289.618 253.871 291.519 253.132C292.416 252.815 293.314 252.445 294.212 252.076C296.113 251.284 297.908 250.386 299.703 249.435C300.548 248.96 301.393 248.485 302.238 248.01C303.98 246.954 305.67 245.845 307.306 244.631C308.099 244.05 308.838 243.469 309.63 242.888C311.214 241.621 312.745 240.301 314.224 238.875C314.91 238.189 315.596 237.555 316.283 236.816C317.656 235.337 319.029 233.859 320.296 232.222C320.877 231.483 321.51 230.691 322.038 229.952C323.253 228.368 324.361 226.678 325.47 224.935C325.998 224.143 326.474 223.299 326.949 222.454C327.952 220.711 328.902 218.916 329.8 217.068C330.222 216.223 330.592 215.326 331.015 214.428C331.807 212.58 332.599 210.732 333.285 208.778C333.602 207.88 333.919 206.983 334.235 206.032C334.869 204.132 335.45 202.178 335.978 200.171C336.242 199.221 336.453 198.323 336.664 197.373C337.14 195.419 337.562 193.413 337.932 191.406C338.09 190.456 338.248 189.505 338.407 188.555C338.724 186.601 338.988 184.542 339.199 182.483C339.304 181.532 339.41 180.582 339.463 179.579C339.621 177.572 339.78 175.566 339.832 173.507C339.885 172.556 339.885 171.606 339.938 170.602C339.991 169.441 339.991 168.279 339.991 167.065C339.938 166.273 339.938 165.375 339.938 164.53ZM296.746 192.04C296.535 192.99 296.324 193.941 296.06 194.838C295.532 196.898 294.951 198.851 294.264 200.647C293.948 201.597 293.578 202.442 293.208 203.34C292.364 205.293 291.466 207.088 290.463 208.778C289.935 209.623 289.46 210.415 288.879 211.207C287.664 212.949 286.344 214.481 284.919 215.801C284.232 216.487 283.493 217.121 282.754 217.702C281.117 218.969 279.374 220.025 277.579 220.87C276.734 221.292 275.837 221.609 274.886 221.926C272.985 222.559 271.032 223.035 268.972 223.246C268.022 223.351 267.072 223.457 266.068 223.457C265.646 223.457 265.171 223.51 264.695 223.51C263.059 223.51 261.527 223.404 259.996 223.193C259.046 223.087 258.095 222.876 257.145 222.665C255.138 222.19 253.237 221.503 251.442 220.606C250.597 220.183 249.753 219.708 248.908 219.18C247.218 218.124 245.687 216.857 244.208 215.378C243.522 214.692 242.888 214.006 242.255 213.213C241.04 211.735 239.879 210.045 238.823 208.197C238.347 207.405 237.872 206.508 237.45 205.663C236.605 203.92 235.813 202.072 235.126 200.066C234.81 199.168 234.546 198.271 234.229 197.32C233.648 195.472 233.173 193.518 232.75 191.406C232.539 190.456 232.381 189.558 232.222 188.555C231.906 186.654 231.589 184.648 231.378 182.536C231.272 181.585 231.166 180.635 231.061 179.684C230.902 177.731 230.744 175.724 230.691 173.612C230.638 172.662 230.638 171.711 230.586 170.708C230.533 169.546 230.533 168.385 230.533 167.17C230.533 166.326 230.533 165.481 230.533 164.636C230.533 163.633 230.586 162.682 230.586 161.732C230.638 159.62 230.797 157.613 230.955 155.66C231.008 154.709 231.114 153.706 231.219 152.808C231.43 150.696 231.694 148.69 232.011 146.789C232.17 145.838 232.328 144.888 232.539 143.938C232.962 141.878 233.437 139.872 233.965 138.024C234.229 137.073 234.493 136.176 234.81 135.278C235.496 133.272 236.235 131.371 237.027 129.628C237.45 128.731 237.872 127.886 238.347 127.041C239.351 125.193 240.459 123.45 241.621 121.919C242.202 121.127 242.836 120.388 243.469 119.702C244.895 118.17 246.426 116.85 248.01 115.689C248.802 115.108 249.647 114.633 250.492 114.157C252.287 113.207 254.135 112.415 256.089 111.887C256.986 111.623 257.937 111.412 258.887 111.253C260.735 110.936 262.636 110.778 264.643 110.778C264.748 110.778 264.854 110.778 264.96 110.778C265.963 110.778 266.913 110.831 267.864 110.936C269.923 111.148 271.929 111.517 273.83 112.098C274.781 112.362 275.678 112.679 276.576 113.049C278.424 113.841 280.219 114.791 281.856 116.005C282.648 116.533 283.387 117.167 284.127 117.801C285.605 119.121 286.978 120.599 288.245 122.289C288.826 123.028 289.354 123.82 289.882 124.665C290.938 126.302 291.888 128.097 292.733 129.998C293.103 130.843 293.472 131.74 293.842 132.638C294.528 134.433 295.162 136.387 295.743 138.393C296.007 139.291 296.218 140.241 296.429 141.192C296.852 143.093 297.274 145.099 297.591 147.158C297.749 148.109 297.855 149.059 298.013 150.01C298.277 151.963 298.489 153.97 298.647 156.082C298.7 157.032 298.805 157.983 298.805 158.986C298.911 160.94 298.964 162.946 299.017 165.058C299.017 165.745 299.017 166.431 299.017 167.17C299.017 167.54 299.017 167.857 299.017 168.226C299.017 170.338 298.964 172.345 298.858 174.299C298.805 175.302 298.753 176.252 298.7 177.203C298.541 179.315 298.383 181.321 298.119 183.275C298.013 184.225 297.855 185.229 297.749 186.126C297.485 188.133 297.116 190.139 296.746 192.04Z" fill="#D9D9D9"/>
<path d="M491.902 184.912V152.069H453.515V184.912H406.363L407.207 183.75L410.956 178.576L412.699 176.199L416.448 171.025L418.19 168.649L421.939 163.474L423.682 161.098L427.431 155.924L429.173 153.547L432.922 148.373L434.664 145.997L438.413 140.822L440.156 138.446L443.905 133.272L445.647 130.896L449.396 125.721L451.139 123.345L454.887 118.17L456.63 115.794L460.379 110.62L462.121 108.244L465.87 103.069L467.613 100.693L471.362 95.5183L473.104 93.1422L476.8 88.0733C473.896 85.0636 470.992 82.1595 468.088 79.3082H440.578L439.733 80.4698L435.984 85.5388L434.242 87.8621L430.493 92.931L428.751 95.3071L425.002 100.376L423.259 102.699L419.51 107.768L417.768 110.144L414.019 115.213L412.276 117.537L408.527 122.606L406.785 124.982L403.036 130.051L401.294 132.374L397.545 137.443L395.802 139.819L392.053 144.888L390.311 147.264L386.562 152.333L384.82 154.656L381.071 159.725L379.328 162.101L375.579 167.17L373.837 169.546L370.088 174.615L368.345 176.991L364.596 182.06L362.854 184.437L359.105 189.505L358.049 190.931V218.282H452.564V255.138H492.166V218.282H520.731V185.176H491.902V184.912Z" fill="#D9D9D9"/>
<path d="M366.656 6.70574C366.656 7.33936 366.603 7.81458 366.444 8.07859C366.286 8.3954 365.916 8.501 365.441 8.28979C365.177 8.18419 364.86 7.973 364.596 7.70899C363.857 7.02257 363.118 6.12494 363.118 6.12494C363.118 6.12494 362.326 7.07537 360.742 5.59692C360.742 5.59692 359.527 6.60015 358.419 6.12494C357.996 5.91373 357.415 5.5441 356.887 5.12169C356.623 4.91048 356.412 4.75208 356.201 4.54087C355.62 4.59368 354.67 4.75209 353.614 5.0689C351.871 5.54412 349.759 6.33614 347.858 7.70899C346.697 8.55382 345.852 9.24024 345.218 9.82106C344.796 9.18744 344.109 7.86738 343.951 5.96652C343.951 5.86092 343.951 5.75531 343.898 5.64971C344.585 4.96328 347.066 4.17127 347.7 3.69605C348.386 3.22083 352.346 1.05596 353.244 1.05596C354.142 1.05596 356.201 0.950352 356.201 0.950352C356.201 0.950352 357.574 -0.264087 358.524 0.0527237C359.475 0.369534 360.689 1.31997 360.795 1.31997C360.9 1.31997 361.956 0.475139 362.696 1.00316C363.435 1.47837 366.656 5.3329 366.656 6.70574Z" fill="#E1A897"/>
<path d="M372.517 43.5614C372.464 44.1422 367.289 48.2079 362.484 48.736C357.679 49.2112 352.505 44.8286 352.505 44.8286L352.452 43.931L352.346 40.7629C351.026 40.7629 348.122 40.7629 346.116 40.3405C343.476 39.8125 342.684 29.1465 342.684 27.8264C342.684 26.7704 343.37 19.5366 343.634 15.682C343.687 15.0484 343.687 14.5204 343.687 14.098C344.215 14.362 345.429 14.9956 346.221 14.89C347.277 14.7316 349.073 13.57 350.34 13.5172C351.607 13.4644 352.505 13.4644 353.561 12.8835C354.353 12.4611 355.25 11.9331 356.201 12.0387C356.571 12.0915 356.887 12.1971 357.204 12.4611C358.419 13.4116 359.316 14.5732 359.316 15.8933C359.316 17.2133 357.838 18.6389 357.838 19.431C357.838 20.1702 359.316 22.7575 359.211 24.2359C359.105 25.7144 358.947 27.4568 359.791 27.3512C360.636 27.2456 361.64 26.7176 362.379 25.3976C363.065 24.0775 364.649 23.0743 365.494 23.9191C366.339 24.7639 366.656 25.7144 366.18 26.7176C365.705 27.7209 365.124 29.0937 365.072 29.5161C365.019 29.9385 365.758 30.8362 366.392 31.417C366.814 31.8394 367.237 32.1562 367.395 32.1034C367.395 32.1034 367.448 32.0506 367.448 31.9978C367.342 33.3706 367.289 35.5355 367.87 37.5948C368.451 39.7068 370.246 41.3437 371.461 42.3997C372.094 42.9806 372.569 43.403 372.517 43.5614Z" fill="#E1A897"/>
<path d="M367.448 32.0506C367.395 32.1034 367.395 32.1034 367.395 32.1562C367.237 32.209 366.867 31.8922 366.392 31.4698C365.758 30.8361 365.019 29.9913 365.072 29.5689C365.124 29.0937 365.705 27.7736 366.18 26.7704C366.656 25.7672 366.339 24.8167 365.494 23.9719C364.649 23.1271 363.118 24.1303 362.379 25.4504C361.64 26.7704 360.636 27.2456 359.791 27.404C358.947 27.5096 359.105 25.7672 359.211 24.2887C359.316 22.8103 357.838 20.2758 357.838 19.4838C357.838 18.7445 359.316 17.2661 359.316 15.946C359.316 14.626 358.419 13.4644 357.204 12.5139C356.887 12.2499 356.518 12.0915 356.201 12.0915C355.251 11.9859 354.353 12.4611 353.561 12.9363C352.505 13.5172 351.607 13.5172 350.34 13.57C349.073 13.6228 347.277 14.7844 346.221 14.9428C345.429 15.0484 344.215 14.4676 343.687 14.1508C343.687 14.0452 343.687 13.9924 343.687 13.9396C343.687 13.834 343.687 13.7284 343.687 13.6756C343.634 12.2499 343.74 11.4051 345.271 9.97944C345.905 9.39862 346.749 8.7122 347.911 7.86737C349.812 6.49452 351.924 5.7025 353.666 5.22728C354.722 4.96327 355.62 4.80487 356.254 4.69926C356.465 4.85767 356.729 5.06888 356.94 5.28009C357.468 5.7025 358.049 6.07211 358.471 6.28332C359.58 6.75853 360.795 5.7553 360.795 5.7553C362.326 7.18095 363.171 6.28332 363.171 6.28332C363.171 6.28332 363.91 7.23375 364.649 7.86737C364.913 8.13138 365.23 8.34259 365.494 8.44819C365.969 8.6594 366.286 8.5538 366.497 8.23699C369.824 11.2467 370.405 16.2629 370.563 19.8006C370.616 23.2327 368.029 31.1001 367.448 32.0506Z" fill="#A37052"/>
<path d="M393.637 56.7618C392.106 53.6465 392.053 51.5344 383.869 46.8879C377.533 43.2974 373.097 42.5581 371.461 42.3997C372.094 42.9806 372.569 43.403 372.569 43.5614C372.517 44.1422 367.342 48.2079 362.537 48.736C358.577 49.1584 354.458 46.2543 353.033 45.1982C352.716 44.9342 352.558 44.8286 352.558 44.8286L352.505 43.931C347.013 44.9342 343.159 41.4493 341.628 41.0269C340.044 40.6045 323.622 33.3178 323.411 32.5258C323.2 31.7866 333.76 23.1271 335.555 21.7015C337.087 20.4342 342.208 16.6853 343.634 15.6292C343.687 14.9956 343.687 14.4676 343.687 14.0452C343.687 13.9396 343.687 13.8868 343.687 13.834C343.687 13.7284 343.687 13.6228 343.687 13.57C343.634 12.1443 343.74 11.2995 345.271 9.87384C344.849 9.24022 344.162 7.92018 344.004 6.01932C342.842 6.49453 337.509 8.76501 333.074 9.76825C328.058 10.9299 317.339 16.5269 313.696 19.695C310.052 22.8631 302.502 27.5624 302.871 29.6745C303.241 31.7866 306.884 38.598 314.435 45.1982C322.038 51.7985 328.691 56.8674 329.008 58.1347C329.061 58.3987 329.272 59.6659 329.483 61.4612C330.17 66.583 331.437 76.0873 331.912 79.6778C342.314 78.1993 355.251 76.2985 355.251 76.2985C355.251 76.2985 355.62 77.0905 356.201 78.3577C356.307 78.6218 356.465 78.9386 356.623 79.3082C356.729 79.5194 356.835 79.7834 356.94 79.9946C357.046 80.2586 357.204 80.5754 357.363 80.8394C357.521 81.1562 357.679 81.5259 357.838 81.8427C357.838 81.8955 357.838 81.8955 357.891 81.9483C357.943 82.1067 358.049 82.2651 358.102 82.4235C358.207 82.6347 358.313 82.8987 358.419 83.1099C358.419 83.1627 358.471 83.2155 358.471 83.2683C358.577 83.5323 358.735 83.7963 358.841 84.1131C359.316 85.0636 359.739 86.014 360.108 86.7532C360.636 87.8093 361.006 88.5485 361.164 88.7597C361.956 89.8157 369.665 97.6832 369.665 97.6832L371.725 105.181H371.883L380.49 105.023C385.295 109.511 384.08 114.474 383.763 115.372C383.711 115.477 383.711 115.53 383.711 115.53C383.763 115.53 383.816 115.53 383.869 115.53C383.975 115.53 384.027 115.53 384.133 115.53C388.885 115.372 397.598 109.194 400.871 106.554C404.251 103.861 406.099 95.3599 406.151 92.8782C406.204 90.3966 395.169 59.8771 393.637 56.7618ZM389.783 98.6336C389.677 100.482 384.133 101.907 384.133 101.907C384.239 98.6336 387.143 88.3373 387.143 88.3373C387.143 88.3373 389.888 96.7856 389.783 98.6336Z" fill="#D9D9D9"/>
<path d="M383.763 115.372C382.655 116.164 380.49 118.065 379.434 118.329C378.008 118.646 377.322 119.226 375.632 118.698C373.942 118.17 370.616 115.002 369.613 114.791C368.609 114.58 363.699 113.418 362.22 112.257C361.745 111.887 361.27 111.517 360.953 111.148C360.267 110.408 360.003 109.669 360.531 109.141C360.531 109.141 359.316 106.501 362.22 106.607C364.121 106.712 367.237 106.871 369.296 106.924C370.405 106.924 371.249 106.924 371.461 106.765C371.672 106.607 371.777 106.184 371.777 105.709C371.777 105.551 371.777 105.339 371.777 105.181L380.384 105.023C385.295 109.564 384.027 114.474 383.763 115.372Z" fill="#E1A897"/>
<path d="M384.186 130.948C384.08 131.001 383.869 131.054 383.447 131.107C380.279 131.582 367.87 132.163 358.524 130.526C349.337 128.942 338.46 126.883 335.397 125.721C334.975 125.563 334.711 125.457 334.605 125.299C334.235 124.771 334.024 122.13 333.971 121.022C343.634 117.642 357.679 112.362 360.953 111.148C361.27 111.517 361.745 111.887 362.22 112.256C363.699 113.365 368.609 114.527 369.613 114.791C370.616 115.002 373.942 118.223 375.632 118.698C377.322 119.174 378.008 118.593 379.434 118.329C380.49 118.117 382.655 116.217 383.763 115.372C383.711 115.477 383.711 115.53 383.711 115.53C383.763 115.53 383.816 115.53 383.869 115.53C383.869 115.583 383.869 115.636 383.869 115.689C384.133 118.434 384.978 130.526 384.186 130.948Z" fill="#D9D9D9"/>
<path d="M360.583 109.194C360.003 109.722 360.319 110.461 361.006 111.2C357.732 112.415 343.687 117.695 334.024 121.074C330.434 122.342 327.477 123.292 325.893 123.714L323.094 117.748C323.094 117.748 310.158 110.936 309.313 110.461C308.468 110.039 307.94 97.3664 307.94 97.3664L295.637 87.2284C295.637 87.2284 310.158 84.0604 314.382 83.4795C316.23 83.2155 323.886 82.2123 332.018 81.1035C342.578 79.6778 353.878 78.1466 353.878 78.1466L357.785 88.9709L367.184 99.0561C367.184 99.0561 369.296 106.026 369.296 106.924C367.184 106.871 364.121 106.66 362.22 106.607C359.369 106.554 360.583 109.194 360.583 109.194Z" fill="#F7EBE7"/>
<path d="M380.859 159.62L384.608 154.551L385.81 152.968C385.863 152.916 385.581 152.455 385.453 152.227C385.326 152 383.552 131.107 383.552 131.107C380.384 131.582 367.976 132.11 358.63 130.526C349.39 128.942 338.565 126.83 335.503 125.721C334.922 128.889 333.285 138.288 332.651 146.842C331.859 157.349 333.919 171.87 334.658 176.199C335.383 180.447 336.21 200.04 336.391 204.323L336.4 204.554C336.611 208.303 338.724 242.466 338.935 244.367C339.093 245.475 339.991 246.32 341.311 247.165C342.208 247.746 343.37 248.327 344.585 248.96C347.225 250.333 352.558 251.284 354.247 251.284H354.247C354.459 251.284 354.67 251.284 354.722 251.231C355.356 250.914 355.356 244.155 355.673 238.664C356.043 233.173 355.99 230.004 356.201 223.299C356.465 216.593 355.937 202.917 355.831 199.01C355.726 195.102 357.151 186.549 357.679 183.381L357.679 183.38C358.155 180.212 359.052 161.626 359.052 161.626C363.435 166.906 365.072 175.619 365.652 180.107L368.134 176.727L369.877 174.404L373.626 169.335L375.368 167.012L379.117 161.943L380.859 159.62Z" fill="#737373"/>
<path d="M384.503 265.698C382.285 267.494 376.582 269.025 373.573 269.342C371.461 268.391 369.454 267.441 367.5 266.596C367.87 264.273 369.032 261.052 369.665 259.309C370.299 257.725 370.299 253.343 370.246 251.495C370.669 251.548 371.408 251.6 372.358 251.706C372.886 251.759 373.52 251.759 374.154 251.812C375.315 251.864 376.635 251.97 377.902 252.023C379.011 252.076 380.067 252.128 380.965 252.181H381.018C381.018 252.181 381.018 252.181 381.018 252.234C381.176 252.656 381.387 253.132 381.599 253.66C382.127 254.768 382.813 255.93 383.394 257.197C384.555 259.257 384.661 262.214 384.503 265.698Z" fill="#D9D9D9"/>
<path d="M386.879 225.675C386.932 223.035 387.354 219.919 387.618 218.018H384.872H382.074H376.318H373.52H368.081C368.557 221.292 369.771 230.268 369.771 233.12C369.771 236.657 369.085 251.125 369.929 251.442C369.982 251.442 370.088 251.495 370.246 251.495C371.672 251.706 377.427 251.97 381.018 252.128C382.707 252.181 383.922 252.234 383.922 252.234C383.922 252.234 384.133 252.551 385.031 244.419C385.928 236.288 386.826 229.793 386.879 225.675Z" fill="#737373"/>
<path d="M384.503 265.698C384.503 266.015 384.503 266.332 384.45 266.702C384.291 269.817 381.335 270.767 377.216 271.084C375.949 270.503 374.734 269.923 373.573 269.395C376.635 268.972 382.338 267.441 384.503 265.698Z" fill="#003668"/>
<path d="M355.62 259.732C353.666 259.996 346.38 260.893 342.684 262.002C338.407 263.27 336.242 264.062 329.958 264.167C325.682 264.273 322.83 263.428 321.457 262.9C321.457 262.002 322.038 260.999 323.569 260.101C326.79 258.253 333.127 255.191 334.605 254.029C335.978 252.973 339.938 249.066 341.205 247.218C342.103 247.799 343.265 248.379 344.479 249.013C347.119 250.386 352.452 251.336 354.142 251.336C354.564 253.237 355.303 257.356 355.62 259.732Z" fill="#D9D9D9"/>
<path d="M355.779 261.474C355.62 262.214 355.303 262.214 352.927 262.794C350.551 263.428 348.703 263.85 347.753 262.636C347.753 262.636 337.14 265.593 333.866 265.698C330.592 265.804 324.89 265.698 323.094 265.012C322.144 264.642 321.457 263.85 321.457 262.9C322.83 263.428 325.682 264.273 329.958 264.167C336.295 264.062 338.407 263.27 342.684 262.002C346.38 260.893 353.666 259.943 355.62 259.732C355.726 260.629 355.831 261.316 355.779 261.474Z" fill="#003668"/>
<path d="M361.534 51.1648C356.835 51.1648 351.554 47.0463 351.343 46.8351C351.132 46.6767 351.079 46.3071 351.238 46.0959C351.396 45.8847 351.766 45.8319 351.977 45.9903C352.03 46.0431 357.204 50.056 361.534 50.056C365.811 50.056 368.715 47.7327 368.715 47.6799C368.926 47.4687 369.296 47.5215 369.454 47.7327C369.665 47.9439 369.613 48.3135 369.401 48.472C369.296 48.6304 366.233 51.1648 361.534 51.1648Z" fill="black"/>
<path d="M348.386 33.4234C348.386 33.7403 348.228 33.9515 347.911 34.0043L343.423 34.4795C343.37 34.1099 343.317 33.7931 343.212 33.4234L347.805 32.9482C348.122 32.9482 348.386 33.1066 348.386 33.4234Z" fill="#E27356"/>
<path d="M353.297 22.2822C353.138 22.2822 352.98 22.2294 352.927 22.1238C352.874 22.0182 351.132 20.223 347.383 21.4902C347.119 21.5958 346.802 21.4374 346.697 21.1734C346.591 20.9094 346.749 20.5926 347.013 20.487C351.502 18.9557 353.614 21.279 353.666 21.3846C353.878 21.5958 353.825 21.9126 353.614 22.1238C353.561 22.2823 353.455 22.2822 353.297 22.2822Z" fill="#A37052"/>
<path d="M343.951 21.7015C343.845 21.7015 343.793 21.7014 343.687 21.6486C343.581 21.5958 343.265 21.4374 343 21.4374C342.684 21.4374 342.472 21.1734 342.525 20.8566C342.525 20.5926 342.789 20.3814 343.106 20.3814C343.634 20.4342 344.109 20.6982 344.215 20.6982C344.479 20.8566 344.585 21.1734 344.426 21.4374C344.321 21.5958 344.109 21.7015 343.951 21.7015Z" fill="#A37052"/>
<path d="M350.868 24.7111C350.762 25.1864 350.551 25.7144 350.393 26.084H350.34C350.287 26.084 350.287 26.084 350.234 26.084C348.439 25.82 347.33 24.4999 346.908 23.4439L346.802 23.2327L347.013 23.0743C347.277 22.9159 348.914 22.3351 350.71 22.7047C350.762 22.7047 350.868 22.7575 350.921 22.7575C351.026 23.2855 351.026 24.1303 350.868 24.7111Z" fill="#A37052"/>
<path d="M353.772 24.5L353.614 24.7112C353.561 24.764 352.399 26.1368 350.71 26.1368C350.604 26.1368 350.498 26.1368 350.34 26.1368C350.498 25.7672 350.71 25.2392 350.815 24.764C350.921 24.1831 350.921 23.3911 350.868 22.8103C351.766 23.0215 352.716 23.4967 353.561 24.3943L353.772 24.5Z" fill="#F7EBE7"/>
<path d="M345.905 28.6185C345.746 28.3545 345.429 28.3017 345.165 28.4073C344.849 28.5657 343.792 29.0409 343.106 28.7769C342.842 28.2489 343.476 25.7144 344.426 23.2327C344.532 22.9687 344.373 22.6519 344.109 22.5463C343.845 22.4407 343.528 22.5991 343.423 22.8631C343.212 23.3911 343.053 23.8663 342.895 24.2887C341.575 28.1961 341.944 29.4105 342.578 29.6745C342.631 29.7273 342.684 29.7273 342.789 29.7273C343.053 29.8329 343.317 29.8857 343.581 29.8857C344.585 29.8857 345.535 29.3577 345.641 29.3049C345.957 29.1993 346.01 28.8825 345.905 28.6185Z" fill="#A37052"/>
<path d="M371.144 73.6056C370.616 80.2586 369.032 87.6509 360.055 86.7532C358.894 84.4299 357.204 80.681 356.148 78.3577C358.049 78.4634 362.326 78.2521 362.115 74.0808C361.851 68.695 355.567 70.0151 353.719 71.7047C353.614 71.8103 349.125 65.4213 349.231 65.4213C349.337 65.4213 352.927 60.1411 359.158 60.458C365.494 60.7748 371.725 66.847 371.144 73.6056Z" fill="#D50000"/>
<path d="M384.45 124.401C384.45 124.718 384.239 124.929 383.922 124.929C382.813 124.929 381.757 124.982 380.701 124.982C371.408 124.982 362.115 124.084 353.033 122.236C347.647 121.655 342.314 120.916 336.981 120.018C337.668 119.754 338.354 119.543 339.04 119.279C340.413 119.49 341.839 119.702 343.212 119.913C342.103 119.596 340.994 119.279 339.885 118.962C340.413 118.751 340.994 118.54 341.575 118.329C345.429 119.438 349.337 120.388 353.244 121.18C363.012 122.236 372.781 122.817 382.549 122.87C382.866 122.87 383.077 123.134 383.077 123.398C383.077 123.609 382.971 123.767 382.76 123.873C383.13 123.873 383.552 123.873 383.922 123.873C384.239 123.873 384.45 124.137 384.45 124.401Z" fill="#D50000"/>
<path d="M371.408 116.956C370.299 117.114 369.19 117.167 368.081 117.167C365.864 117.167 363.593 116.903 361.428 116.533C357.732 116.217 353.983 115.741 350.34 115.108C351.238 114.791 352.135 114.421 353.033 114.105C355.039 114.316 356.993 114.685 358.947 115.002C359.791 115.161 360.689 115.319 361.587 115.425C364.86 115.689 368.134 115.847 371.408 115.847V116.956Z" fill="#D50000"/>
<path d="M383.341 260.101C382.549 258.94 381.282 258.148 379.856 258.042C379.592 257.989 379.381 257.989 379.117 257.989C378.589 257.989 378.114 257.989 377.691 257.778C376.794 257.356 376.371 256.353 376.16 255.191C376.53 255.032 377.058 254.927 377.691 254.98C377.902 254.98 378.061 255.032 378.272 255.032C378.853 255.085 379.487 255.138 380.067 255.032C380.807 254.874 381.546 254.293 381.651 253.554C381.651 253.448 381.651 253.29 381.651 253.184C381.599 252.762 381.387 252.392 381.018 252.128C381.018 252.128 380.965 252.128 380.965 252.076C380.49 251.706 379.856 251.548 379.275 251.6C378.8 251.653 378.325 251.759 377.902 251.917C377.163 252.234 376.582 252.709 376.107 253.343C376.002 252.973 375.738 252.656 375.474 252.445C375.104 252.128 374.629 251.917 374.154 251.759C373.995 251.706 373.784 251.653 373.626 251.6C373.256 251.495 372.728 251.495 372.411 251.653C372.411 251.653 372.358 251.653 372.358 251.706C372.2 251.812 372.041 251.97 371.989 252.181C371.936 252.551 372.147 252.868 372.358 253.132C372.886 253.765 373.52 254.24 374.206 254.663C374.47 254.821 374.734 254.98 375.104 254.927C375.262 254.927 375.421 254.874 375.579 254.821C375.579 254.874 375.579 254.927 375.632 254.98C375.526 255.032 375.474 255.085 375.368 255.191C375.157 255.402 374.998 255.666 374.893 255.877C374.84 255.983 374.787 256.089 374.734 256.194C374.259 256.933 373.52 257.461 372.728 257.989C372.464 258.201 372.147 258.359 371.883 258.57C370.51 259.626 369.877 260.893 370.141 262.055C370.141 262.161 370.299 262.266 370.405 262.266H370.457C370.616 262.214 370.669 262.108 370.669 261.95C370.352 260.577 371.777 259.362 372.2 258.993C372.464 258.781 372.728 258.623 372.992 258.412C373.784 257.884 374.629 257.303 375.157 256.458C375.21 256.353 375.262 256.247 375.368 256.141C375.474 255.93 375.632 255.719 375.738 255.56C376.002 256.722 376.477 257.831 377.533 258.253C378.061 258.465 378.642 258.517 379.17 258.517C379.434 258.517 379.645 258.517 379.856 258.517C381.071 258.623 382.232 259.362 382.919 260.365C382.971 260.471 383.024 260.471 383.13 260.471C383.183 260.471 383.235 260.471 383.288 260.418C383.394 260.418 383.447 260.26 383.341 260.101ZM375.051 254.399C374.84 254.399 374.629 254.293 374.47 254.188C373.837 253.818 373.256 253.343 372.781 252.762C372.675 252.604 372.517 252.445 372.569 252.287C372.569 252.234 372.622 252.181 372.675 252.128C372.781 252.076 372.939 252.023 373.098 252.023C373.256 252.023 373.414 252.023 373.573 252.076C374.259 252.287 374.787 252.445 375.21 252.815C375.474 253.079 375.738 253.501 375.79 253.924C375.526 254.24 375.315 254.399 375.051 254.399ZM376.054 254.663C376.107 254.61 376.107 254.61 376.16 254.557C376.213 254.452 376.213 254.293 376.266 254.188C376.318 254.082 376.371 254.029 376.424 253.924L376.53 253.765C377.163 252.868 378.219 252.287 379.328 252.234C380.12 252.181 381.071 252.604 381.123 253.29C381.176 253.924 380.543 254.452 379.909 254.61C379.381 254.716 378.853 254.663 378.272 254.61C378.061 254.61 377.85 254.557 377.691 254.557C377.058 254.504 376.53 254.557 376.054 254.768C376.054 254.716 376.054 254.663 376.054 254.663Z" fill="black"/>
<path d="M343.212 247.271C343.106 247.112 342.895 246.954 342.684 246.848C342.156 246.637 341.575 246.69 341.047 246.901C340.994 246.901 340.941 246.954 340.888 247.007C340.624 247.165 340.36 247.376 340.149 247.587C339.938 246.954 339.516 246.426 338.882 246.215C338.248 245.951 337.192 246.109 336.664 246.479C336.347 246.69 336.347 246.954 336.347 247.059C336.453 247.904 338.196 248.749 338.829 248.96C338.46 249.171 338.09 249.435 337.879 249.858C337.562 250.333 337.404 250.914 337.298 251.495C337.298 251.6 337.245 251.653 337.245 251.759C337.087 252.656 336.928 253.448 336.242 253.765C336.136 253.818 336.083 253.976 336.136 254.135C336.189 254.24 336.295 254.293 336.347 254.293C336.4 254.293 336.453 254.293 336.453 254.293C337.351 253.818 337.562 252.868 337.72 251.917C337.773 251.548 337.879 251.178 337.984 250.808C338.037 250.597 338.143 250.386 338.248 250.228C338.512 249.805 338.935 249.541 339.41 249.33C339.516 249.277 339.568 249.277 339.674 249.224C339.885 249.911 340.255 250.439 340.624 251.02C340.836 251.284 341.047 251.6 341.205 251.917C341.997 253.343 342.103 255.085 341.522 256.617C341.469 256.722 341.522 256.881 341.68 256.933C341.68 256.933 341.733 256.933 341.786 256.933C341.892 256.933 341.997 256.881 342.05 256.775C342.684 255.085 342.578 253.184 341.68 251.653C341.522 251.336 341.311 251.02 341.1 250.703C340.73 250.175 340.36 249.7 340.202 249.119C340.572 249.066 340.941 249.013 341.205 249.013H341.311C341.733 249.013 342.208 249.013 342.631 248.802C342.842 248.696 343.001 248.538 343.106 248.379C343.159 248.274 343.212 248.168 343.265 248.01C343.423 247.746 343.37 247.482 343.212 247.271ZM339.093 248.538C338.037 248.168 336.981 247.376 336.928 247.059C336.928 247.007 336.981 246.954 337.034 246.954C337.245 246.795 337.72 246.69 338.143 246.69C338.354 246.69 338.565 246.69 338.724 246.795C339.357 247.059 339.78 247.746 339.727 248.432C339.727 248.485 339.727 248.538 339.727 248.538C339.727 248.591 339.674 248.591 339.674 248.643C339.568 248.643 339.357 248.643 339.093 248.538ZM342.472 248.327C342.156 248.485 341.786 248.485 341.416 248.485H341.311C341.047 248.485 340.677 248.485 340.308 248.591C340.308 248.538 340.36 248.485 340.36 248.432V248.379V248.327C340.466 248.01 340.677 247.799 340.994 247.587C341.1 247.535 341.152 247.482 341.258 247.482C341.311 247.429 341.364 247.429 341.416 247.429C341.575 247.376 341.786 247.323 341.944 247.323C342.156 247.323 342.314 247.376 342.472 247.429C342.631 247.482 342.736 247.535 342.789 247.64C342.842 247.746 342.842 247.851 342.842 247.904C342.842 248.01 342.789 248.063 342.737 248.115C342.631 248.168 342.578 248.274 342.472 248.327Z" fill="black"/>
<path d="M371.725 105.234L369.665 97.736C369.665 97.736 361.956 89.8685 361.164 88.8125C361.006 88.5485 360.583 87.8093 360.108 86.806C359.739 86.014 359.316 85.1164 358.841 84.166C358.735 83.9019 358.577 83.6379 358.471 83.3211C358.471 83.2683 358.419 83.2155 358.419 83.1627C358.313 82.9515 358.207 82.7403 358.102 82.4763C358.049 82.3179 357.943 82.1595 357.891 82.0011C357.891 81.9483 357.838 81.9483 357.838 81.8955C357.679 81.5787 357.521 81.209 357.363 80.8922C357.204 80.5754 357.099 80.3114 356.94 80.0474C356.835 79.7834 356.729 79.5722 356.623 79.361C356.465 79.0442 356.359 78.7274 356.201 78.4106C355.62 77.1961 355.251 76.3513 355.251 76.3513C355.251 76.3513 342.261 78.2522 331.912 79.7306C327.266 80.3642 323.094 80.945 320.877 81.209C313.748 82.0539 292.944 85.1164 293.103 87.5453C293.261 89.9213 305.511 99.3729 305.511 99.3729C305.511 99.3729 306.356 111.042 306.937 111.676C307.571 112.309 318.553 118.751 318.553 118.751L322.249 124.031C322.355 124.137 322.461 124.19 322.619 124.19C323.305 124.084 325.576 123.873 325.893 123.767L323.411 118.487L328.427 117.009C328.533 117.167 328.638 117.325 328.691 117.484C329.589 119.121 329.642 121.18 328.955 122.87C329.378 122.764 329.8 122.606 330.222 122.447C330.75 120.652 330.539 118.646 329.642 116.956C329.589 116.85 329.536 116.745 329.483 116.692L360.425 107.557C360.425 107.504 360.478 107.452 360.531 107.399C360.531 107.346 360.583 107.346 360.583 107.293L360.636 107.24L360.689 107.188C360.742 107.135 360.795 107.082 360.848 107.082C360.953 107.029 361.059 106.976 361.164 106.924C361.217 106.924 361.27 106.924 361.27 106.871C361.376 106.871 361.481 106.818 361.64 106.818C361.692 106.818 361.745 106.818 361.851 106.818C361.956 106.818 362.115 106.818 362.273 106.818C362.537 106.818 362.801 106.818 363.118 106.871L368.926 105.128C368.979 105.392 369.085 105.656 369.137 105.867C369.19 106.026 369.243 106.184 369.243 106.29C369.296 106.448 369.296 106.554 369.349 106.712C369.349 106.818 369.401 106.924 369.401 106.976C369.401 107.029 369.401 107.029 369.401 107.082C370.51 107.082 371.355 107.082 371.566 106.924C371.777 106.765 371.883 106.343 371.883 105.867L371.725 105.234ZM366.972 98.8448C361.534 99.6897 356.043 100.64 350.604 101.591C350.498 101.591 350.446 101.591 350.34 101.591C349.389 101.643 348.492 101.696 347.647 101.591C345.641 101.432 344.057 100.587 343.423 99.3201C342.948 98.4224 342.948 97.3136 342.948 96.152C342.948 94.8319 342.895 93.4063 342.156 92.2446C341.997 92.0334 341.839 91.8222 341.68 91.611C347.225 90.819 352.822 90.1326 358.419 89.5517L366.972 98.8448ZM329.8 81.4203C330.064 81.3675 330.275 81.3675 330.539 81.3147C330.698 81.3147 330.909 81.2619 331.067 81.2619C331.384 81.2091 331.701 81.1562 332.018 81.1562C342.578 79.7306 353.878 78.1994 353.878 78.1994L357.627 88.6541C351.924 89.2349 346.169 89.9213 340.519 90.7662C340.36 90.6606 340.255 90.6078 340.096 90.5022C336.136 88.0733 331.331 87.9149 326.738 87.7037L325.682 87.6509C324.995 87.6509 324.361 87.5981 323.939 87.2813C323.2 86.806 322.989 85.75 323.147 84.958C323.358 83.9547 323.939 83.1099 324.52 82.2651C324.52 82.2123 324.573 82.2123 324.573 82.1595C326.21 81.8955 328.005 81.6843 329.8 81.4203ZM295.637 87.2284C295.637 87.2284 310.158 84.0604 314.382 83.4795C314.54 83.4795 314.804 83.4267 315.068 83.3739C315.174 83.3739 315.227 83.3211 315.332 83.3211C315.438 83.3211 315.544 83.3211 315.649 83.2683C315.755 83.2683 315.913 83.2155 316.072 83.2155C316.811 83.1099 317.656 83.0043 318.659 82.8459C319.134 82.7931 319.662 82.7403 320.19 82.6347C321.141 82.5291 322.144 82.3707 323.253 82.2123C322.777 82.9515 322.355 83.7435 322.197 84.6412C321.985 85.8028 322.249 87.3341 323.464 88.0733C324.203 88.5485 325.101 88.6013 325.734 88.6013L326.79 88.6541C331.014 88.8125 335.344 89.0237 338.935 90.9246C328.374 92.5086 317.92 94.5679 307.623 97.0496L295.637 87.2284ZM309.049 109.986C309.049 109.88 308.996 109.775 308.943 109.616C308.891 109.405 308.838 109.141 308.785 108.877C308.732 108.402 308.627 107.874 308.574 107.293C308.574 107.24 308.574 107.24 308.574 107.188C308.574 107.082 308.574 106.924 308.521 106.818C308.468 106.501 308.468 106.184 308.415 105.867C308.415 105.603 308.363 105.392 308.363 105.128C308.363 104.864 308.31 104.653 308.31 104.389C308.31 104.336 308.31 104.283 308.31 104.283C308.31 104.072 308.257 103.861 308.257 103.703C308.257 103.386 308.204 103.122 308.204 102.805C308.204 102.594 308.151 102.383 308.151 102.224C308.151 102.119 308.151 102.013 308.151 101.96C308.151 101.749 308.151 101.591 308.099 101.379C308.099 101.168 308.099 101.01 308.046 100.851C308.046 100.746 308.046 100.693 308.046 100.587C308.046 100.482 308.046 100.323 308.046 100.218C308.046 100.112 308.046 99.9537 308.046 99.8481C308.046 99.6897 308.046 99.5313 308.046 99.3729C308.046 99.056 307.993 98.792 307.993 98.5808C307.993 98.4224 307.993 98.3168 307.993 98.1584C318.659 95.6239 329.483 93.5119 340.36 91.875C340.783 92.1918 341.1 92.5086 341.311 92.8782C341.892 93.8287 341.892 94.9903 341.944 96.2047C341.944 97.4192 341.944 98.7392 342.578 99.8481C343.37 101.432 344.954 102.119 346.221 102.488C333.813 104.811 321.51 107.452 309.313 110.461C309.155 110.356 309.102 110.197 309.049 109.986ZM322.672 117.537C322.144 117.273 321.193 116.745 319.979 116.111C319.821 116.058 319.662 115.953 319.504 115.847C319.398 115.794 319.292 115.741 319.187 115.689C318.976 115.583 318.817 115.477 318.606 115.372C318.289 115.213 317.92 115.002 317.603 114.844C317.444 114.738 317.286 114.685 317.18 114.58C316.864 114.421 316.547 114.263 316.283 114.105C316.124 113.999 315.966 113.946 315.808 113.841C315.385 113.629 315.016 113.418 314.646 113.207C314.435 113.101 314.224 112.996 314.065 112.89C313.59 112.626 313.115 112.362 312.639 112.151C312.481 112.045 312.27 111.992 312.111 111.887C312.059 111.887 312.059 111.834 312.006 111.834C311.742 111.728 311.531 111.57 311.319 111.464C311.108 111.359 310.897 111.253 310.686 111.148C323.886 107.927 337.351 105.075 350.762 102.647C351.554 102.594 352.346 102.594 353.138 102.647C353.508 102.699 354.722 102.858 354.934 103.544C355.092 104.178 354.406 104.864 353.719 105.287C349.495 107.927 344.162 107.768 339.04 107.61C337.668 107.557 336.295 107.504 334.922 107.557C333.074 107.557 331.12 107.716 329.43 108.666C327.846 109.564 326.315 111.464 326.738 113.629C326.896 114.527 327.371 115.266 327.846 115.953L322.672 117.537ZM328.85 115.689C328.322 114.949 327.846 114.263 327.741 113.471C327.424 111.887 328.586 110.356 329.906 109.616C331.384 108.824 333.179 108.666 334.922 108.666C336.242 108.666 337.668 108.719 339.04 108.719C344.321 108.877 349.812 109.036 354.3 106.237C355.62 105.392 356.254 104.336 355.99 103.28C355.831 102.699 355.356 102.224 354.723 101.96C358.999 101.221 363.276 100.482 367.501 99.8481C367.712 100.587 368.081 101.802 368.451 103.069C368.504 103.28 368.557 103.544 368.662 103.755C368.662 103.808 368.715 103.861 368.715 103.967L328.85 115.689Z" fill="black"/>
</svg>
